# MagicaVoxel @ Ephtracy

# group
g minidb

# material
mtllib minidb.mtl
usemtl palette

# normals
vn -1 0 0
vn 1 0 0
vn 0 0 1
vn 0 0 -1
vn 0 -1 0
vn 0 1 0

# texcoords
vt 0.439453 0.5
vt 0.689453 0.5

# verts
v -18 0 15
v -18 0 10
v -18 1 15
v -18 1 10
v -18 2 15
v -18 2 14
v -18 2 13
v -18 2 12
v -18 2 11
v -18 2 10
v -18 3 14
v -18 3 13
v -18 5 12
v -18 5 11
v -17 2 11
v -17 2 10
v -17 4 11
v -17 4 10
v -16 2 15
v -16 2 14
v -16 5 15
v -16 5 14
v -15 0 10
v -15 0 8
v -15 1 10
v -15 2 10
v -15 2 9
v -15 2 8
v -15 4 9
v -15 4 8
v -14 0 14
v -14 0 11
v -14 1 14
v -14 1 11
v -14 2 15
v -14 2 14
v -14 2 13
v -14 2 11
v -14 3 13
v -14 3 12
v -14 3 11
v -14 4 15
v -14 4 14
v -14 4 9
v -14 4 8
v -14 5 12
v -14 5 11
v -14 6 9
v -14 6 8
v -12 0 15
v -12 0 8
v -12 1 15
v -12 1 8
v -12 2 12
v -12 2 10
v -12 3 15
v -12 3 14
v -12 3 13
v -12 3 12
v -12 3 9
v -12 3 8
v -12 5 14
v -12 5 13
v -12 6 10
v -12 6 9
v -11 2 11
v -11 2 10
v -11 3 15
v -11 3 14
v -11 3 9
v -11 3 8
v -11 4 15
v -11 4 14
v -11 5 11
v -11 5 10
v -11 5 9
v -11 5 8
v -9 2 15
v -9 2 14
v -9 4 15
v -9 4 14
v -8 0 14
v -8 0 11
v -8 1 14
v -8 1 11
v -8 2 13
v -8 2 11
v -8 2 10
v -8 4 14
v -8 4 11
v -8 4 10
v -8 5 14
v -8 5 13
v -17 0 14
v -17 0 11
v -17 1 14
v -17 1 11
v -17 2 14
v -17 2 13
v -17 2 12
v -17 3 14
v -17 3 13
v -17 4 11
v -17 5 12
v -17 5 11
v -16 3 11
v -16 3 10
v -16 4 11
v -16 4 10
v -15 2 15
v -15 2 14
v -15 5 15
v -15 5 14
v -13 0 15
v -13 0 8
v -13 1 15
v -13 1 8
v -13 2 14
v -13 2 13
v -13 2 10
v -13 2 9
v -13 3 13
v -13 3 12
v -13 3 11
v -13 3 10
v -13 4 15
v -13 4 14
v -13 5 12
v -13 5 11
v -13 6 9
v -13 6 8
v -11 0 14
v -11 0 11
v -11 1 14
v -11 1 11
v -11 2 12
v -11 2 11
v -11 3 13
v -11 3 12
v -11 3 10
v -11 3 9
v -11 4 14
v -11 5 14
v -11 5 13
v -11 5 10
v -11 5 9
v -11 6 10
v -11 6 9
v -10 0 10
v -10 0 8
v -10 1 10
v -10 1 8
v -10 2 15
v -10 2 14
v -10 3 10
v -10 3 9
v -10 4 15
v -10 4 14
v -10 4 11
v -10 4 10
v -10 5 11
v -10 5 10
v -10 5 9
v -10 5 8
v -9 2 11
v -9 2 10
v -9 4 11
v -9 4 10
v -8 2 15
v -8 2 14
v -8 4 15
v -8 4 14
v -7 0 15
v -7 0 10
v -7 1 15
v -7 1 10
v -7 2 15
v -7 2 14
v -7 2 13
v -7 2 11
v -7 4 11
v -7 4 10
v -7 5 14
v -7 5 13
v -18 0 15
v -18 1 15
v -18 2 15
v -16 2 15
v -16 5 15
v -15 2 15
v -15 5 15
v -14 2 15
v -14 4 15
v -13 0 15
v -13 1 15
v -13 4 15
v -12 0 15
v -12 1 15
v -12 3 15
v -11 3 15
v -11 4 15
v -10 2 15
v -10 4 15
v -9 2 15
v -9 4 15
v -8 2 15
v -8 4 15
v -7 0 15
v -7 1 15
v -7 2 15
v -18 2 14
v -18 3 14
v -17 2 14
v -17 3 14
v -12 3 14
v -12 5 14
v -11 3 14
v -11 4 14
v -11 5 14
v -8 2 14
v -8 4 14
v -8 5 14
v -7 2 14
v -7 5 14
v -14 2 13
v -14 3 13
v -13 2 13
v -13 3 13
v -18 2 12
v -18 5 12
v -17 2 12
v -17 5 12
v -14 3 12
v -14 5 12
v -13 3 12
v -13 5 12
v -17 0 11
v -17 1 11
v -17 4 11
v -16 3 11
v -16 4 11
v -15 1 11
v -15 2 11
v -14 0 11
v -14 1 11
v -14 2 11
v -14 3 11
v -11 0 11
v -11 1 11
v -11 2 11
v -11 5 11
v -10 4 11
v -10 5 11
v -9 2 11
v -9 4 11
v -8 0 11
v -8 1 11
v -8 2 11
v -8 4 11
v -7 2 11
v -7 4 11
v -12 2 10
v -12 6 10
v -11 2 10
v -11 5 10
v -11 6 10
v -15 2 9
v -15 4 9
v -14 2 9
v -14 4 9
v -14 6 9
v -13 2 9
v -13 6 9
v -11 3 9
v -11 5 9
v -10 3 9
v -10 5 9
v -17 0 14
v -17 1 14
v -17 2 14
v -16 2 14
v -16 5 14
v -15 2 14
v -15 5 14
v -14 0 14
v -14 1 14
v -14 2 14
v -14 4 14
v -13 2 14
v -13 4 14
v -11 0 14
v -11 1 14
v -11 4 14
v -10 2 14
v -10 4 14
v -9 2 14
v -9 4 14
v -8 0 14
v -8 1 14
v -8 4 14
v -18 2 13
v -18 3 13
v -17 2 13
v -17 3 13
v -12 3 13
v -12 5 13
v -11 3 13
v -11 5 13
v -8 2 13
v -8 5 13
v -7 2 13
v -7 5 13
v -12 2 12
v -12 3 12
v -11 2 12
v -11 3 12
v -18 2 11
v -18 5 11
v -17 2 11
v -17 4 11
v -17 5 11
v -14 3 11
v -14 5 11
v -13 3 11
v -13 5 11
v -18 0 10
v -18 1 10
v -18 2 10
v -17 2 10
v -17 4 10
v -16 3 10
v -16 4 10
v -15 0 10
v -15 1 10
v -15 2 10
v -14 2 10
v -13 2 10
v -13 3 10
v -11 3 10
v -11 5 10
v -10 0 10
v -10 1 10
v -10 3 10
v -10 4 10
v -10 5 10
v -9 2 10
v -9 4 10
v -8 2 10
v -8 4 10
v -7 0 10
v -7 1 10
v -7 4 10
v -12 3 9
v -12 6 9
v -11 3 9
v -11 5 9
v -11 6 9
v -15 0 8
v -15 2 8
v -15 4 8
v -14 1 8
v -14 2 8
v -14 4 8
v -14 6 8
v -13 0 8
v -13 1 8
v -13 6 8
v -12 0 8
v -12 1 8
v -12 3 8
v -11 3 8
v -11 5 8
v -10 0 8
v -10 1 8
v -10 5 8
v -18 0 15
v -13 0 15
v -12 0 15
v -7 0 15
v -17 0 14
v -14 0 14
v -11 0 14
v -8 0 14
v -17 0 11
v -14 0 11
v -11 0 11
v -8 0 11
v -18 0 10
v -15 0 10
v -10 0 10
v -7 0 10
v -15 0 8
v -13 0 8
v -12 0 8
v -10 0 8
v -18 2 15
v -16 2 15
v -15 2 15
v -14 2 15
v -10 2 15
v -9 2 15
v -8 2 15
v -7 2 15
v -18 2 14
v -17 2 14
v -16 2 14
v -15 2 14
v -14 2 14
v -13 2 14
v -10 2 14
v -9 2 14
v -8 2 14
v -7 2 14
v -18 2 13
v -17 2 13
v -14 2 13
v -13 2 13
v -8 2 13
v -7 2 13
v -18 2 12
v -17 2 12
v -12 2 12
v -11 2 12
v -18 2 11
v -17 2 11
v -11 2 11
v -9 2 11
v -8 2 11
v -7 2 11
v -18 2 10
v -17 2 10
v -15 2 10
v -14 2 10
v -13 2 10
v -12 2 10
v -11 2 10
v -9 2 10
v -8 2 10
v -15 2 9
v -14 2 9
v -13 2 9
v -12 3 15
v -11 3 15
v -18 3 14
v -17 3 14
v -12 3 14
v -11 3 14
v -18 3 13
v -17 3 13
v -14 3 13
v -13 3 13
v -12 3 13
v -11 3 13
v -14 3 12
v -13 3 12
v -12 3 12
v -11 3 12
v -16 3 11
v -14 3 11
v -13 3 11
v -16 3 10
v -13 3 10
v -11 3 10
v -10 3 10
v -12 3 9
v -11 3 9
v -10 3 9
v -12 3 8
v -11 3 8
v -14 4 15
v -13 4 15
v -11 4 15
v -10 4 15
v -9 4 15
v -8 4 15
v -14 4 14
v -13 4 14
v -11 4 14
v -10 4 14
v -9 4 14
v -8 4 14
v -17 4 11
v -16 4 11
v -10 4 11
v -9 4 11
v -8 4 11
v -7 4 11
v -17 4 10
v -16 4 10
v -10 4 10
v -9 4 10
v -8 4 10
v -7 4 10
v -15 4 9
v -14 4 9
v -15 4 8
v -14 4 8
v -16 5 15
v -15 5 15
v -16 5 14
v -15 5 14
v -12 5 14
v -11 5 14
v -8 5 14
v -7 5 14
v -12 5 13
v -11 5 13
v -8 5 13
v -7 5 13
v -18 5 12
v -17 5 12
v -14 5 12
v -13 5 12
v -18 5 11
v -17 5 11
v -14 5 11
v -13 5 11
v -11 5 11
v -10 5 11
v -11 5 10
v -10 5 10
v -11 5 9
v -10 5 9
v -11 5 8
v -10 5 8
v -12 6 10
v -11 6 10
v -14 6 9
v -13 6 9
v -12 6 9
v -11 6 9
v -14 6 8
v -13 6 8

# faces
f 3/1/1 2/1/1 1/1/1
f 4/1/1 2/1/1 3/1/1
f 5/2/1 4/2/1 3/2/1
f 6/2/1 4/2/1 5/2/1
f 7/2/1 4/2/1 6/2/1
f 8/2/1 4/2/1 7/2/1
f 9/2/1 4/2/1 8/2/1
f 10/2/1 4/2/1 9/2/1
f 11/2/1 7/2/1 6/2/1
f 12/2/1 7/2/1 11/2/1
f 13/2/1 9/2/1 8/2/1
f 14/2/1 9/2/1 13/2/1
f 17/2/1 16/2/1 15/2/1
f 18/2/1 16/2/1 17/2/1
f 21/2/1 20/2/1 19/2/1
f 22/2/1 20/2/1 21/2/1
f 25/1/1 24/1/1 23/1/1
f 26/1/1 24/1/1 25/1/1
f 27/1/1 24/1/1 26/1/1
f 28/1/1 24/1/1 27/1/1
f 29/2/1 28/2/1 27/2/1
f 30/2/1 28/2/1 29/2/1
f 33/1/1 32/1/1 31/1/1
f 34/1/1 32/1/1 33/1/1
f 36/2/1 34/2/1 33/2/1
f 37/2/1 34/2/1 36/2/1
f 38/2/1 34/2/1 37/2/1
f 39/2/1 38/2/1 37/2/1
f 40/2/1 38/2/1 39/2/1
f 41/2/1 38/2/1 40/2/1
f 42/2/1 36/2/1 35/2/1
f 43/2/1 36/2/1 42/2/1
f 46/2/1 41/2/1 40/2/1
f 47/2/1 41/2/1 46/2/1
f 48/2/1 45/2/1 44/2/1
f 49/2/1 45/2/1 48/2/1
f 52/1/1 51/1/1 50/1/1
f 53/1/1 51/1/1 52/1/1
f 54/2/1 53/2/1 52/2/1
f 55/2/1 53/2/1 54/2/1
f 56/2/1 54/2/1 52/2/1
f 57/2/1 54/2/1 56/2/1
f 58/2/1 54/2/1 57/2/1
f 59/2/1 54/2/1 58/2/1
f 60/2/1 53/2/1 55/2/1
f 61/2/1 53/2/1 60/2/1
f 62/2/1 58/2/1 57/2/1
f 63/2/1 58/2/1 62/2/1
f 64/2/1 60/2/1 55/2/1
f 65/2/1 60/2/1 64/2/1
f 72/2/1 69/2/1 68/2/1
f 73/2/1 69/2/1 72/2/1
f 74/2/1 67/2/1 66/2/1
f 75/2/1 67/2/1 74/2/1
f 76/2/1 71/2/1 70/2/1
f 77/2/1 71/2/1 76/2/1
f 80/2/1 79/2/1 78/2/1
f 81/2/1 79/2/1 80/2/1
f 84/1/1 83/1/1 82/1/1
f 85/1/1 83/1/1 84/1/1
f 86/2/1 85/2/1 84/2/1
f 87/2/1 85/2/1 86/2/1
f 89/2/1 86/2/1 84/2/1
f 90/2/1 88/2/1 87/2/1
f 91/2/1 88/2/1 90/2/1
f 92/2/1 86/2/1 89/2/1
f 93/2/1 86/2/1 92/2/1
f 94/1/2 95/1/2 96/1/2
f 96/1/2 95/1/2 97/1/2
f 96/2/2 97/2/2 98/2/2
f 98/2/2 97/2/2 99/2/2
f 99/2/2 97/2/2 100/2/2
f 98/2/2 99/2/2 101/2/2
f 101/2/2 99/2/2 102/2/2
f 100/2/2 97/2/2 103/2/2
f 100/2/2 103/2/2 104/2/2
f 104/2/2 103/2/2 105/2/2
f 106/2/2 107/2/2 108/2/2
f 108/2/2 107/2/2 109/2/2
f 110/2/2 111/2/2 112/2/2
f 112/2/2 111/2/2 113/2/2
f 114/1/2 115/1/2 116/1/2
f 116/1/2 115/1/2 117/1/2
f 116/2/2 117/2/2 118/2/2
f 118/2/2 117/2/2 119/2/2
f 119/2/2 117/2/2 120/2/2
f 120/2/2 117/2/2 121/2/2
f 119/2/2 120/2/2 122/2/2
f 122/2/2 120/2/2 123/2/2
f 123/2/2 120/2/2 124/2/2
f 124/2/2 120/2/2 125/2/2
f 116/2/2 118/2/2 126/2/2
f 126/2/2 118/2/2 127/2/2
f 123/2/2 124/2/2 128/2/2
f 128/2/2 124/2/2 129/2/2
f 121/2/2 117/2/2 130/2/2
f 130/2/2 117/2/2 131/2/2
f 132/1/2 133/1/2 134/1/2
f 134/1/2 133/1/2 135/1/2
f 134/2/2 135/2/2 136/2/2
f 136/2/2 135/2/2 137/2/2
f 134/2/2 136/2/2 138/2/2
f 138/2/2 136/2/2 139/2/2
f 134/2/2 138/2/2 142/2/2
f 142/2/2 138/2/2 143/2/2
f 143/2/2 138/2/2 144/2/2
f 140/2/2 141/2/2 145/2/2
f 145/2/2 141/2/2 146/2/2
f 145/2/2 146/2/2 147/2/2
f 147/2/2 146/2/2 148/2/2
f 149/1/2 150/1/2 151/1/2
f 151/1/2 150/1/2 152/1/2
f 151/2/2 152/2/2 155/2/2
f 155/2/2 152/2/2 156/2/2
f 153/2/2 154/2/2 157/2/2
f 157/2/2 154/2/2 158/2/2
f 159/2/2 160/2/2 161/2/2
f 161/2/2 160/2/2 162/2/2
f 156/2/2 152/2/2 163/2/2
f 163/2/2 152/2/2 164/2/2
f 165/2/2 166/2/2 167/2/2
f 167/2/2 166/2/2 168/2/2
f 169/2/2 170/2/2 171/2/2
f 171/2/2 170/2/2 172/2/2
f 173/1/2 174/1/2 175/1/2
f 175/1/2 174/1/2 176/1/2
f 175/2/2 176/2/2 177/2/2
f 177/2/2 176/2/2 178/2/2
f 178/2/2 176/2/2 179/2/2
f 179/2/2 176/2/2 180/2/2
f 180/2/2 176/2/2 181/2/2
f 181/2/2 176/2/2 182/2/2
f 178/2/2 179/2/2 183/2/2
f 183/2/2 179/2/2 184/2/2
f 188/2/3 187/2/3 186/2/3
f 190/2/3 188/2/3 186/2/3
f 190/2/3 189/2/3 188/2/3
f 191/2/3 189/2/3 190/2/3
f 192/2/3 190/2/3 186/2/3
f 194/1/3 186/1/3 185/1/3
f 195/2/3 193/2/3 192/2/3
f 195/1/3 186/1/3 194/1/3
f 195/2/3 192/2/3 186/2/3
f 196/2/3 193/2/3 195/2/3
f 200/2/3 199/2/3 198/2/3
f 202/2/3 200/2/3 198/2/3
f 202/2/3 201/2/3 200/2/3
f 203/2/3 201/2/3 202/2/3
f 204/2/3 202/2/3 198/2/3
f 206/2/3 204/2/3 198/2/3
f 206/2/3 205/2/3 204/2/3
f 207/2/3 205/2/3 206/2/3
f 208/1/3 198/1/3 197/1/3
f 209/2/3 206/2/3 198/2/3
f 209/1/3 198/1/3 208/1/3
f 210/2/3 206/2/3 209/2/3
f 213/2/3 212/2/3 211/2/3
f 214/2/3 212/2/3 213/2/3
f 217/2/3 216/2/3 215/2/3
f 218/2/3 216/2/3 217/2/3
f 219/2/3 216/2/3 218/2/3
f 223/2/3 221/2/3 220/2/3
f 223/2/3 222/2/3 221/2/3
f 224/2/3 222/2/3 223/2/3
f 227/2/3 226/2/3 225/2/3
f 228/2/3 226/2/3 227/2/3
f 231/2/3 230/2/3 229/2/3
f 232/2/3 230/2/3 231/2/3
f 235/2/3 234/2/3 233/2/3
f 236/2/3 234/2/3 235/2/3
f 240/2/3 239/2/3 238/2/3
f 241/2/3 239/2/3 240/2/3
f 242/1/3 238/1/3 237/1/3
f 242/2/3 240/2/3 238/2/3
f 243/2/3 240/2/3 242/2/3
f 244/1/3 242/1/3 237/1/3
f 244/1/3 243/1/3 242/1/3
f 245/1/3 243/1/3 244/1/3
f 246/2/3 240/2/3 243/2/3
f 246/1/3 243/1/3 245/1/3
f 247/2/3 240/2/3 246/2/3
f 252/2/3 250/2/3 249/2/3
f 252/2/3 251/2/3 250/2/3
f 253/2/3 251/2/3 252/2/3
f 254/2/3 252/2/3 249/2/3
f 255/2/3 252/2/3 254/2/3
f 256/1/3 249/1/3 248/1/3
f 257/2/3 254/2/3 249/2/3
f 257/1/3 249/1/3 256/1/3
f 258/2/3 254/2/3 257/2/3
f 260/2/3 259/2/3 258/2/3
f 261/2/3 259/2/3 260/2/3
f 264/2/3 263/2/3 262/2/3
f 265/2/3 263/2/3 264/2/3
f 266/2/3 263/2/3 265/2/3
f 269/2/3 268/2/3 267/2/3
f 270/2/3 268/2/3 269/2/3
f 272/2/3 270/2/3 269/2/3
f 272/2/3 271/2/3 270/2/3
f 273/2/3 271/2/3 272/2/3
f 276/2/3 275/2/3 274/2/3
f 277/2/3 275/2/3 276/2/3
f 279/2/4 280/2/4 281/2/4
f 279/2/4 281/2/4 283/2/4
f 281/2/4 282/2/4 283/2/4
f 283/2/4 282/2/4 284/2/4
f 278/1/4 279/1/4 285/1/4
f 279/2/4 283/2/4 286/2/4
f 285/1/4 279/1/4 286/1/4
f 286/2/4 283/2/4 287/2/4
f 287/2/4 288/2/4 289/2/4
f 289/2/4 288/2/4 290/2/4
f 292/2/4 293/2/4 294/2/4
f 294/2/4 293/2/4 295/2/4
f 292/2/4 294/2/4 296/2/4
f 291/1/4 292/1/4 298/1/4
f 296/2/4 297/2/4 299/2/4
f 298/1/4 292/1/4 299/1/4
f 292/2/4 296/2/4 299/2/4
f 299/2/4 297/2/4 300/2/4
f 301/2/4 302/2/4 303/2/4
f 303/2/4 302/2/4 304/2/4
f 305/2/4 306/2/4 307/2/4
f 307/2/4 306/2/4 308/2/4
f 309/2/4 310/2/4 311/2/4
f 311/2/4 310/2/4 312/2/4
f 313/2/4 314/2/4 315/2/4
f 315/2/4 314/2/4 316/2/4
f 317/2/4 318/2/4 319/2/4
f 319/2/4 318/2/4 320/2/4
f 320/2/4 318/2/4 321/2/4
f 322/2/4 323/2/4 324/2/4
f 324/2/4 323/2/4 325/2/4
f 327/2/4 328/2/4 329/2/4
f 329/2/4 330/2/4 331/2/4
f 331/2/4 330/2/4 332/2/4
f 326/1/4 327/1/4 333/1/4
f 327/2/4 329/2/4 334/2/4
f 333/1/4 327/1/4 334/1/4
f 329/2/4 331/2/4 334/2/4
f 334/2/4 331/2/4 335/2/4
f 335/2/4 331/2/4 336/2/4
f 336/2/4 331/2/4 337/2/4
f 337/2/4 331/2/4 338/2/4
f 339/2/4 340/2/4 343/2/4
f 343/2/4 340/2/4 344/2/4
f 344/2/4 340/2/4 345/2/4
f 342/2/4 343/2/4 346/2/4
f 343/2/4 344/2/4 346/2/4
f 346/2/4 344/2/4 347/2/4
f 342/2/4 346/2/4 348/2/4
f 341/1/4 342/1/4 350/1/4
f 348/2/4 349/2/4 351/2/4
f 350/1/4 342/1/4 351/1/4
f 342/2/4 348/2/4 351/2/4
f 351/2/4 349/2/4 352/2/4
f 353/2/4 354/2/4 355/2/4
f 355/2/4 354/2/4 356/2/4
f 356/2/4 354/2/4 357/2/4
f 358/1/4 359/1/4 361/1/4
f 359/2/4 360/2/4 362/2/4
f 361/1/4 359/1/4 362/1/4
f 362/2/4 360/2/4 363/2/4
f 358/1/4 361/1/4 365/1/4
f 363/2/4 364/2/4 366/2/4
f 365/1/4 361/1/4 366/1/4
f 361/2/4 362/2/4 366/2/4
f 362/2/4 363/2/4 366/2/4
f 366/2/4 364/2/4 367/2/4
f 369/2/4 370/2/4 371/2/4
f 368/1/4 369/1/4 373/1/4
f 371/2/4 372/2/4 374/2/4
f 373/1/4 369/1/4 374/1/4
f 369/2/4 371/2/4 374/2/4
f 374/2/4 372/2/4 375/2/4
f 380/1/5 377/1/5 376/1/5
f 381/1/5 377/1/5 380/1/5
f 382/1/5 379/1/5 378/1/5
f 383/1/5 379/1/5 382/1/5
f 384/1/5 380/1/5 376/1/5
f 385/1/5 377/1/5 381/1/5
f 386/1/5 382/1/5 378/1/5
f 387/1/5 379/1/5 383/1/5
f 388/1/5 384/1/5 376/1/5
f 388/1/5 385/1/5 384/1/5
f 389/1/5 385/1/5 388/1/5
f 390/1/5 387/1/5 386/1/5
f 391/1/5 379/1/5 387/1/5
f 391/1/5 387/1/5 390/1/5
f 392/1/5 385/1/5 389/1/5
f 393/1/5 377/1/5 385/1/5
f 393/1/5 385/1/5 392/1/5
f 394/1/5 386/1/5 378/1/5
f 394/1/5 390/1/5 386/1/5
f 395/1/5 390/1/5 394/1/5
f 396/2/6 397/2/6 404/2/6
f 404/2/6 397/2/6 405/2/6
f 405/2/6 397/2/6 406/2/6
f 398/2/6 399/2/6 407/2/6
f 407/2/6 399/2/6 408/2/6
f 400/2/6 401/2/6 410/2/6
f 410/2/6 401/2/6 411/2/6
f 402/2/6 403/2/6 412/2/6
f 412/2/6 403/2/6 413/2/6
f 408/2/6 409/2/6 416/2/6
f 416/2/6 409/2/6 417/2/6
f 414/2/6 415/2/6 420/2/6
f 420/2/6 415/2/6 421/2/6
f 422/2/6 423/2/6 426/2/6
f 418/2/6 419/2/6 428/2/6
f 428/2/6 419/2/6 429/2/6
f 424/2/6 425/2/6 430/2/6
f 430/2/6 425/2/6 431/2/6
f 422/2/6 426/2/6 435/2/6
f 435/2/6 426/2/6 436/2/6
f 427/2/6 428/2/6 437/2/6
f 437/2/6 428/2/6 438/2/6
f 432/1/6 433/1/6 439/1/6
f 433/2/6 434/2/6 440/2/6
f 439/1/6 433/1/6 440/1/6
f 440/2/6 434/2/6 441/2/6
f 442/2/6 443/2/6 446/2/6
f 446/2/6 443/2/6 447/2/6
f 444/2/6 445/2/6 448/2/6
f 448/2/6 445/2/6 449/2/6
f 450/2/6 451/2/6 454/2/6
f 454/2/6 451/2/6 455/2/6
f 452/2/6 453/2/6 456/2/6
f 456/2/6 453/2/6 457/2/6
f 458/2/6 459/2/6 461/2/6
f 459/2/6 460/2/6 461/2/6
f 461/2/6 460/2/6 462/2/6
f 463/2/6 464/2/6 466/2/6
f 466/2/6 464/2/6 467/2/6
f 465/2/6 466/2/6 468/2/6
f 468/2/6 466/2/6 469/2/6
f 470/2/6 471/2/6 476/2/6
f 476/2/6 471/2/6 477/2/6
f 472/2/6 473/2/6 478/2/6
f 478/2/6 473/2/6 479/2/6
f 474/2/6 475/2/6 480/2/6
f 480/2/6 475/2/6 481/2/6
f 482/2/6 483/2/6 488/2/6
f 488/2/6 483/2/6 489/2/6
f 484/2/6 485/2/6 490/2/6
f 490/2/6 485/2/6 491/2/6
f 486/2/6 487/2/6 492/2/6
f 492/2/6 487/2/6 493/2/6
f 494/2/6 495/2/6 496/2/6
f 496/2/6 495/2/6 497/2/6
f 498/2/6 499/2/6 500/2/6
f 500/2/6 499/2/6 501/2/6
f 502/2/6 503/2/6 506/2/6
f 506/2/6 503/2/6 507/2/6
f 504/2/6 505/2/6 508/2/6
f 508/2/6 505/2/6 509/2/6
f 510/2/6 511/2/6 514/2/6
f 514/2/6 511/2/6 515/2/6
f 512/2/6 513/2/6 516/2/6
f 516/2/6 513/2/6 517/2/6
f 518/2/6 519/2/6 520/2/6
f 520/2/6 519/2/6 521/2/6
f 522/2/6 523/2/6 524/2/6
f 524/2/6 523/2/6 525/2/6
f 526/2/6 527/2/6 530/2/6
f 530/2/6 527/2/6 531/2/6
f 528/2/6 529/2/6 532/2/6
f 532/2/6 529/2/6 533/2/6
